# File created by Blade
# Date/Time:  Tue Jan 27 17:21:46 2015
#---------------------------------------------------------
:version 1.10
:name HOM
:units
  mass 1.0
  length 1.000000
  angle deg
:documentation
     Acclaim Skeleton File
:root
   axis xyz
   order TX TY TZ RX RY RZ
   position 0.000000 0.000000 0.000000
   orientation 0 0 0
:bonedata
   begin
      id 1
      name Spine_dum
      direction 0.000000 1.000000 0.000000
      length 7.539951
      axis 0.0 0.0 0.0 xyz
   end
   begin
      id 2
      name LeftUpLeg_dum
      direction 1.000000 0.000000 0.000000
      length 3.345476
      axis 0.0 0.0 0.0 xyz
   end
   begin
      id 3
      name RightUpLeg_dum
      direction -1.000000 0.000000 0.000000
      length 3.345476
      axis 0.0 0.0 0.0 xyz
   end
   begin
      id 4
      name Spine
      direction 0.000000 1.000000 0.000000
      length 0.000000
      axis 0.0 0.0 0.0 xyz
      dof rx ry rz
   end
   begin
      id 5
      name Spine_dum1
      direction 0.000000 1.000000 0.000000
      length 15.093809
      axis 0.0 0.0 0.0 xyz
   end
   begin
      id 6
      name Spine_dum2
      direction 0.000000 1.000000 0.000000
      length 9.738928
      axis 0.0 0.0 0.0 xyz
   end
   begin
      id 7
      name Spine_dum3
      direction 0.000000 1.000000 0.000000
      length 9.738928
      axis 0.0 0.0 0.0 xyz
   end
   begin
      id 8
      name Head
      direction 0.000000 1.000000 0.000000
      length 4.527550
      axis 0.0 0.0 0.0 xyz
      dof rx ry rz
   end
   begin
      id 9
      name LeftShoulder
      direction 1.000000 0.000000 0.000000
      length 7.084015
      axis 0.0 0.0 -90.0 xyz
      dof rx ry rz
   end
   begin
      id 10
      name LeftArm
      direction 1.000000 0.000000 0.000000
      length 10.259319
      axis 0.0 0.0 -90.0 xyz
      dof rx ry rz
   end
   begin
      id 11
      name LeftForeArm
      direction 1.000000 0.000000 0.000000
      length 9.896984
      axis 0.0 0.0 -90.0 xyz
      dof ry rz rx
   end
   begin
      id 12
      name LeftHand
      direction 0.000000 0.000000 0.000000
      length 0.000000
      axis 0.0 0.0 -90.0 xyz
      dof rx ry rz
   end
   begin
      id 13
      name LeftHand_dum1
      direction 0.000000 0.000000 0.000000
      length 0.000000
      axis 0.0 0.0 -90.0 xyz
   end
   begin
      id 14
      name LeftHand_dum2
      direction 1.000000 0.000000 0.000000
      length 3.937000
      axis 0.0 0.0 -90.0 xyz
   end
   begin
      id 15
      name LeftHandThumb1
      direction 0.000000 0.000000 1.000000
      length 3.937000
      axis 0.0 0.0 -90.0 xyz
      dof rx rz ry
   end
   begin
      id 16
      name RightShoulder
      direction -1.000000 0.000000 0.000000
      length 7.084015
      axis 0.0 0.0 90.0 xyz
      dof rx ry rz
   end
   begin
      id 17
      name RightArm
      direction -1.000000 0.000000 0.000000
      length 10.259319
      axis 0.0 0.0 90.0 xyz
      dof rx ry rz
   end
   begin
      id 18
      name RightForeArm
      direction -1.000000 0.000000 0.000000
      length 9.896984
      axis 0.0 0.0 90.0 xyz
      dof ry rz rx
   end
   begin
      id 19
      name RightHand
      direction 0.000000 0.000000 0.000000
      length 0.000000
      axis 0.0 0.0 90.0 xyz
      dof rx ry rz
   end
   begin
      id 20
      name RightHand_dum1
      direction 0.000000 0.000000 0.000000
      length 0.000000
      axis 0.0 0.0 90.0 xyz
   end
   begin
      id 21
      name RightHand_dum2
      direction -1.000000 0.000000 0.000000
      length 3.937000
      axis 0.0 0.0 90.0 xyz
   end
   begin
      id 22
      name RightHandThumb1
      direction 0.000000 0.000000 1.000000
      length 3.937000
      axis 0.0 0.0 90.0 xyz
      dof rx rz ry
   end
   begin
      id 23
      name LeftUpLeg
      direction 0.000000 -1.000000 0.000000
      length 19.114733
      axis 0.0 0.0 0.0 xyz
      dof rx ry rz
   end
   begin
      id 24
      name LeftLeg
      direction 0.000000 -1.000000 0.000000
      length 16.045604
      axis 0.0 0.0 0.0 xyz
      dof rx ry rz
   end
   begin
      id 25
      name LeftFoot
      direction 0.000000 -0.258819 0.965926
      length 5.543155
      axis 15.0 0.0 0.0 xyz
      dof rx ry rz
   end
   begin
      id 26
      name LeftToeBase
      direction 0.000000 0.000000 1.000000
      length 2.952750
      axis 0.0 0.0 0.0 xyz
      dof rx ry rz
   end
   begin
      id 27
      name RightUpLeg
      direction 0.000000 -1.000000 0.000000
      length 19.114733
      axis 0.0 0.0 0.0 xyz
      dof rx ry rz
   end
   begin
      id 28
      name RightLeg
      direction 0.000000 -1.000000 0.000000
      length 16.045604
      axis 0.0 0.0 0.0 xyz
      dof rx ry rz
   end
   begin
      id 29
      name RightFoot
      direction 0.000000 -0.258819 0.965926
      length 5.543155
      axis 15.0 0.0 0.0 xyz
      dof rx ry rz
   end
   begin
      id 30
      name RightToeBase
      direction 0.000000 0.000000 1.000000
      length 2.952750
      axis 0.0 0.0 0.0 xyz
      dof rx ry rz
   end
:hierarchy
   begin
      root Spine_dum LeftUpLeg_dum RightUpLeg_dum
      Spine_dum Spine
      LeftUpLeg_dum LeftUpLeg
      RightUpLeg_dum RightUpLeg
      Spine Spine_dum1 Spine_dum2 Spine_dum3
      Spine_dum1 Head
      Spine_dum2 LeftShoulder
      Spine_dum3 RightShoulder
      LeftShoulder LeftArm
      LeftArm LeftForeArm
      LeftForeArm LeftHand
      LeftHand LeftHand_dum1 LeftHand_dum2
      LeftHand_dum1 LeftHandThumb1
      RightShoulder RightArm
      RightArm RightForeArm
      RightForeArm RightHand
      RightHand RightHand_dum1 RightHand_dum2
      RightHand_dum1 RightHandThumb1
      LeftUpLeg LeftLeg
      LeftLeg LeftFoot
      LeftFoot LeftToeBase
      RightUpLeg RightLeg
      RightLeg RightFoot
      RightFoot RightToeBase
   end

# File created by Blade
# Date/Time:  Tue Jan 27 17:21:37 2015
# Frame Rate: 120.000 fps
#------------------------------------------------------
:FULLY-SPECIFIED
:DEGREES
1439
root -2.384464 36.598030 -1.460097 2.456513 -2.138744 -0.545198
Spine 5.253707 10.071119 -1.336170
Head 5.116681 -3.359759 5.237918
LeftShoulder -3.890923 -13.371315 11.119229
LeftArm -5.047184 -25.662111 -38.636977
LeftForeArm 3.280783 -0.000000 73.959598
LeftHand -18.366389 -0.000000 48.077463
LeftHandThumb1 -26.253704 0.000000 33.147579
RightShoulder -6.402510 -16.702940 2.986473
RightArm 20.906995 -15.771695 42.716833
RightForeArm 170.143226 0.000000 37.390111
RightHand 0.296919 -0.000000 -2.977274
RightHandThumb1 -24.326973 -0.000000 -32.862282
LeftUpLeg -56.107606 15.273228 2.195050
LeftLeg 81.105984 -0.000000 -0.000000
LeftFoot 10.697968 -3.516164 -31.431183
LeftToeBase 14.363436 -0.000000 -0.000000
RightUpLeg -10.402582 -15.592171 8.822009
RightLeg 17.109296 -0.000000 -0.000000
RightFoot -15.537162 -9.741443 -3.897950
RightToeBase 4.236911 -0.000000 -0.000000
1440
root -2.389804 36.598744 -1.458284 2.489837 -2.145878 -0.537518
Spine 5.253835 10.018686 -1.397962
Head 5.054466 -3.322191 5.260323
LeftShoulder -3.846714 -13.421538 11.165549
LeftArm -5.136411 -25.645677 -38.600851
LeftForeArm 3.252903 -0.000000 74.054363
LeftHand -18.395986 0.000000 48.024080
LeftHandThumb1 -26.253704 0.000000 33.147579
RightShoulder -6.390373 -16.709092 2.963671
RightArm 20.924618 -15.778865 42.785835
RightForeArm 170.178522 -0.000000 37.354911
RightHand 0.333777 -0.000000 -2.954480
RightHandThumb1 -24.326973 -0.000000 -32.862282
LeftUpLeg -55.994675 15.388316 2.225387
LeftLeg 80.718258 -0.000000 -0.000000
LeftFoot 9.811132 -2.973565 -31.077063
LeftToeBase 14.193091 -0.000000 -0.000000
RightUpLeg -10.443865 -15.529250 8.822559
RightLeg 17.134931 -0.000000 -0.000000
RightFoot -15.528759 -9.750203 -3.867365
RightToeBase 4.195311 -0.000000 -0.000000
1441
root -2.394760 36.600023 -1.456720 2.520997 -2.152386 -0.531162
Spine 5.261243 9.960093 -1.461836
Head 4.981043 -3.254600 5.374128
LeftShoulder -3.801682 -13.507676 11.230210
LeftArm -5.258882 -25.608146 -38.572368
LeftForeArm 3.316623 0.000000 74.143780
LeftHand -18.416632 -0.000000 48.004644
LeftHandThumb1 -26.253704 0.000000 33.147579
RightShoulder -6.360672 -16.681467 2.950797
RightArm 20.898018 -15.777080 42.859126
RightForeArm 170.170001 0.000000 37.348592
RightHand 0.330945 -0.000000 -2.896677
RightHandThumb1 -24.326973 -0.000000 -32.862282
LeftUpLeg -55.904891 15.508109 2.236301
LeftLeg 80.290570 -0.000000 -0.000000
LeftFoot 8.819834 -2.216328 -30.724651
LeftToeBase 14.261350 -0.000000 -0.000000
RightUpLeg -10.483493 -15.496405 8.822418
RightLeg 17.162386 -0.000000 -0.000000
RightFoot -15.524553 -9.703022 -3.836248
RightToeBase 4.188107 -0.000000 -0.000000
1442
root -2.400099 36.599538 -1.456866 2.555925 -2.163578 -0.519316
Spine 5.265358 9.897604 -1.517165
Head 4.950900 -3.305360 5.283584
LeftShoulder -3.777704 -13.397133 11.223204
LeftArm -5.186436 -25.674311 -38.531537
LeftForeArm 3.328568 0.000000 74.188956
LeftHand -18.488667 -0.000000 48.258775
LeftHandThumb1 -26.253704 0.000000 33.147579
RightShoulder -6.347767 -16.697121 2.905379
RightArm 20.942099 -15.779929 42.930638
RightForeArm 170.173040 -0.000000 37.346089
RightHand 0.368031 -0.000000 -2.859202
RightHandThumb1 -24.326973 -0.000000 -32.862282
LeftUpLeg -55.815395 15.580719 2.284500
LeftLeg 79.835332 -0.000000 -0.000000
LeftFoot 7.769838 -1.495113 -30.232170
LeftToeBase 14.104726 -0.000000 -0.000000
RightUpLeg -10.535671 -15.461384 8.819742
RightLeg 17.203809 -0.000000 -0.000000
RightFoot -15.546757 -9.645876 -3.790726
RightToeBase 4.204295 -0.000000 -0.000000
1443
root -2.404710 36.600388 -1.455639 2.586780 -2.175447 -0.504321
Spine 5.278138 9.817292 -1.588221
Head 4.901073 -3.172010 5.293475
LeftShoulder -3.786516 -13.405723 11.258003
LeftArm -5.221714 -25.703633 -38.502257
LeftForeArm 3.396545 -0.000000 74.273940
LeftHand -18.504582 -0.000000 48.093878
LeftHandThumb1 -26.253704 0.000000 33.147579
RightShoulder -6.328535 -16.697650 2.889738
RightArm 20.983696 -15.784733 42.965403
RightForeArm 170.191819 0.000000 37.348816
RightHand 0.372640 -0.000000 -2.859879
RightHandThumb1 -24.326973 -0.000000 -32.862282
LeftUpLeg -55.716043 15.661078 2.324967
LeftLeg 79.342319 -0.000000 -0.000000
LeftFoot 6.580152 -0.725787 -29.584746
LeftToeBase 14.145031 -0.000000 -0.000000
RightUpLeg -10.579255 -15.429331 8.813114
RightLeg 17.235839 -0.000000 -0.000000
RightFoot -15.539463 -9.618656 -3.788376
RightToeBase 4.160256 -0.000000 -0.000000
1444
root -2.409894 36.600144 -1.454974 2.606449 -2.202829 -0.500160
Spine 5.298763 9.749915 -1.632074
Head 4.902498 -3.164045 5.185515
LeftShoulder -3.767422 -13.385676 11.254332
LeftArm -5.250049 -25.751466 -38.435142
LeftForeArm 3.428180 0.000000 74.332414
LeftHand -18.535473 0.000000 48.106188
LeftHandThumb1 -26.253704 0.000000 33.147579
RightShoulder -6.293364 -16.712343 2.841088
RightArm 21.022676 -15.786490 43.012664
RightForeArm 170.177993 -0.000000 37.363135
RightHand 0.373068 -0.000000 -2.867807
RightHandThumb1 -24.326973 -0.000000 -32.862282
LeftUpLeg -55.619150 15.745071 2.386210
LeftLeg 78.817409 -0.000000 -0.000000
LeftFoot 5.369030 0.138034 -29.209962
LeftToeBase 14.395098 -0.000000 -0.000000
RightUpLeg -10.610446 -15.378099 8.810894
RightLeg 17.272685 -0.000000 -0.000000
RightFoot -15.549980 -9.550819 -3.723549
RightToeBase 4.173732 -0.000000 -0.000000
1445
root -2.413648 36.600097 -1.453758 2.614127 -2.212076 -0.487403
Spine 5.329765 9.675772 -1.678474
Head 4.869308 -3.185766 5.180301
LeftShoulder -3.687061 -13.390006 11.241685
LeftArm -5.371789 -25.823020 -38.320582
LeftForeArm 3.466111 0.000000 74.406260
LeftHand -18.599784 -0.000000 48.244820
LeftHandThumb1 -26.253704 0.000000 33.147579
RightShoulder -6.270182 -16.718959 2.795929
RightArm 21.063247 -15.797141 43.054443
RightForeArm 170.187900 0.000000 37.380327
RightHand 0.420008 -0.000000 -2.900207
RightHandThumb1 -24.326973 -0.000000 -32.862282
LeftUpLeg -55.522125 15.790679 2.427727
LeftLeg 78.287465 -0.000000 -0.000000
LeftFoot 4.095527 1.086233 -28.267833
LeftToeBase 13.819931 -0.000000 -0.000000
RightUpLeg -10.632621 -15.363430 8.798071
RightLeg 17.309196 -0.000000 -0.000000
RightFoot -15.555136 -9.489666 -3.712497
RightToeBase 4.122939 -0.000000 -0.000000
1446
root -2.417815 36.602278 -1.452431 2.623285 -2.218256 -0.464874
Spine 5.362615 9.588703 -1.757323
Head 4.860195 -3.083041 5.249221
LeftShoulder -3.670037 -13.451011 11.246171
LeftArm -5.458218 -25.866467 -38.241949
LeftForeArm 3.481030 0.000000 74.471962
LeftHand -18.590007 -0.000000 48.252363
LeftHandThumb1 -26.253704 0.000000 33.147579
RightShoulder -6.254630 -16.708290 2.788987
RightArm 21.121363 -15.830795 43.059132
RightForeArm 170.210456 -0.000000 37.380388
RightHand 0.396353 -0.000000 -2.911444
RightHandThumb1 -24.326973 -0.000000 -32.862282
LeftUpLeg -55.424984 15.838649 2.439133
LeftLeg 77.738516 -0.000000 -0.000000
LeftFoot 2.714318 2.126931 -27.733053
LeftToeBase 13.835932 -0.000000 -0.000000
RightUpLeg -10.657770 -15.356752 8.778863
RightLeg 17.349904 -0.000000 -0.000000
RightFoot -15.539830 -9.449425 -3.733918
RightToeBase 4.099948 -0.000000 -0.000000
1447
root -2.422170 36.603509 -1.451399 2.639507 -2.249852 -0.434958
Spine 5.386610 9.520723 -1.843849
Head 4.862463 -3.013452 5.198303
LeftShoulder -3.691863 -13.420175 11.254371
LeftArm -5.449287 -25.973732 -38.203224
LeftForeArm 3.486782 -0.000000 74.505039
LeftHand -18.577368 -0.000000 48.171416
LeftHandThumb1 -26.253704 0.000000 33.147579
RightShoulder -6.238813 -16.695963 2.765717
RightArm 21.185041 -15.874428 43.081770
RightForeArm 170.257455 -0.000000 37.385974
RightHand 0.399678 -0.000000 -2.860146
RightHandThumb1 -24.326973 -0.000000 -32.862282
LeftUpLeg -55.335400 15.903327 2.443746
LeftLeg 77.164991 -0.000000 -0.000000
LeftFoot 1.263359 3.084954 -26.910016
LeftToeBase 14.091759 -0.000000 -0.000000
RightUpLeg -10.693956 -15.325546 8.756757
RightLeg 17.389587 -0.000000 -0.000000
RightFoot -15.547848 -9.420496 -3.728745
RightToeBase 4.078178 -0.000000 -0.000000
1448
root -2.427286 36.603985 -1.451709 2.666131 -2.288722 -0.403506
Spine 5.398893 9.455182 -1.931418
Head 4.852425 -2.987891 5.079849
LeftShoulder -3.698172 -13.399412 11.254325
LeftArm -5.448622 -26.084659 -38.146686
LeftForeArm 3.514330 -0.000000 74.515315
LeftHand -18.671023 -0.000000 48.266401
LeftHandThumb1 -26.253704 0.000000 33.147579
RightShoulder -6.240695 -16.681724 2.737978
RightArm 21.276008 -15.926597 43.104576
RightForeArm 170.312736 -0.000000 37.383215
RightHand 0.389404 -0.000000 -2.849189
RightHandThumb1 -24.326973 -0.000000 -32.862282
LeftUpLeg -55.269963 15.971338 2.433186
LeftLeg 76.592567 -0.000000 -0.000000
LeftFoot -0.240750 4.078562 -25.928653
LeftToeBase 13.993701 -0.000000 -0.000000
RightUpLeg -10.738664 -15.274486 8.738741
RightLeg 17.429864 -0.000000 -0.000000
RightFoot -15.523616 -9.385757 -3.796651
RightToeBase 4.011163 -0.000000 -0.000000
1449
root -2.432135 36.604779 -1.450693 2.687122 -2.347822 -0.374810
Spine 5.407874 9.426741 -2.021964
Head 4.867509 -2.964725 5.026963
LeftShoulder -3.669256 -13.401877 11.247838
LeftArm -5.495839 -26.255292 -38.083637
LeftForeArm 3.595150 0.000000 74.538623
LeftHand -18.695173 -0.000000 48.143173
LeftHandThumb1 -26.253704 0.000000 33.147579
RightShoulder -6.246328 -16.663033 2.724944
RightArm 21.335840 -15.961854 43.137914
RightForeArm 170.353962 -0.000000 37.401507
RightHand 0.403419 -0.000000 -2.818987
RightHandThumb1 -24.326973 -0.000000 -32.862282
LeftUpLeg -55.190385 16.054110 2.422487
LeftLeg 76.059076 -0.000000 -0.000000
LeftFoot -1.816503 4.967924 -25.718642
LeftToeBase 14.740930 -0.000000 -0.000000
RightUpLeg -10.764621 -15.246694 8.720854
RightLeg 17.451035 -0.000000 -0.000000
RightFoot -15.501029 -9.326965 -3.876605
RightToeBase 3.936655 -0.000000 -0.000000
